<svg width="41" height="41" viewBox="0 0 41 41" fill="none" xmlns="http://www.w3.org/2000/svg">
<g id="breathable 1">
<g id="Group">
<g id="Group_2">
<path id="Vector" d="M39.5251 25.4625H1.47543C1.20565 25.4625 0.95309 25.3313 0.79811 25.1099C0.64313 24.8885 0.60623 24.6064 0.69807 24.3522L4.00677 15.2535C4.12567 14.9263 4.43645 14.709 4.78413 14.709H11.4015C11.8583 14.709 12.2289 15.0796 12.2289 15.5364C12.2289 15.9931 11.8583 16.3637 11.4015 16.3637H5.36387L2.65705 23.8085H38.3435L35.6366 16.3646H31.2529C30.7962 16.3646 30.4255 15.9939 30.4255 15.5372C30.4255 15.0804 30.7962 14.7098 31.2529 14.7098H36.2156C36.5632 14.7098 36.874 14.9271 36.9929 15.2543L40.3016 24.353C40.3935 24.6064 40.3566 24.8893 40.2016 25.1107C40.0474 25.3313 39.7949 25.4625 39.5251 25.4625Z" fill="black"/>
</g>
<g id="Group_3">
<path id="Vector_2" d="M12.0587 22.9719C11.9775 22.9719 11.8955 22.9596 11.8143 22.935C11.3781 22.7997 11.1337 22.3364 11.2682 21.9001C11.442 21.3384 11.6454 20.7595 11.8742 20.1806C14.7491 12.8834 12.3416 8.39145 9.92339 5.29349C9.64213 4.93351 9.70609 4.41363 10.0661 4.13237C10.426 3.85111 10.9459 3.91507 11.2272 4.27505C13.0328 6.58745 14.0947 8.76537 14.5711 11.1294C15.1738 14.12 14.795 17.2794 13.4133 20.7866C13.2001 21.327 13.0107 21.8665 12.8491 22.3889C12.7393 22.7439 12.4121 22.9719 12.0587 22.9719Z" fill="black"/>
</g>
<g id="Group_4">
<path id="Vector_3" d="M14.7111 37.0432C14.4651 37.0432 14.2216 36.9341 14.0584 36.725C12.5111 34.7431 10.4512 31.5975 10.4258 27.1909C10.4233 26.7341 10.7915 26.3618 11.2483 26.3594H11.2532C11.7075 26.3594 12.0773 26.7267 12.0806 27.1818C12.0978 30.1921 13.1097 32.8218 15.363 35.7074C15.6443 36.0674 15.5803 36.5872 15.2203 36.8685C15.0678 36.9866 14.8891 37.0432 14.7111 37.0432Z" fill="#8D8D8D"/>
</g>
<g id="Group_5">
<path id="Vector_4" d="M19.504 22.9719C19.4228 22.9719 19.3408 22.9596 19.2596 22.935C18.8234 22.7997 18.579 22.3364 18.7135 21.9001C18.8873 21.3384 19.0907 20.7595 19.3195 20.1806C22.1944 12.8834 19.7869 8.39145 17.3687 5.29349C17.0874 4.93351 17.1514 4.41363 17.5114 4.13237C17.8714 3.85111 18.3912 3.91507 18.6725 4.27505C20.4781 6.58745 21.54 8.76537 22.0165 11.1294C22.6192 14.12 22.2403 17.2794 20.8586 20.7866C20.6454 21.327 20.456 21.8665 20.2945 22.3889C20.1838 22.7439 19.8566 22.9719 19.504 22.9719Z" fill="black"/>
</g>
<g id="Group_6">
<path id="Vector_5" d="M22.1545 37.0432C21.9085 37.0432 21.6649 36.9341 21.5018 36.725C19.9544 34.7431 17.8946 31.5975 17.8692 27.1909C17.8667 26.7341 18.2349 26.3618 18.6916 26.3594H18.6965C19.1508 26.3594 19.5206 26.7267 19.5239 27.1818C19.5411 30.1921 20.553 32.8218 22.8064 35.7074C23.0876 36.0674 23.0237 36.5872 22.6637 36.8685C22.512 36.9866 22.3324 37.0432 22.1545 37.0432Z" fill="#8D8D8D"/>
</g>
<g id="Group_7">
<path id="Vector_6" d="M26.9473 22.9719C26.8662 22.9719 26.7842 22.9596 26.703 22.935C26.2667 22.7997 26.0224 22.3364 26.1569 21.9001C26.3307 21.3384 26.5341 20.7595 26.7628 20.1806C29.6378 12.8834 27.2302 8.39145 24.8121 5.29349C24.5308 4.93351 24.5948 4.41363 24.9547 4.13237C25.3147 3.85111 25.8346 3.91507 26.1159 4.27505C27.9215 6.58745 28.9834 8.76537 29.4598 11.1294C30.0625 14.12 29.6837 17.2794 28.302 20.7866C28.0888 21.327 27.8994 21.8665 27.7378 22.3889C27.6271 22.7439 27.3008 22.9719 26.9473 22.9719Z" fill="black"/>
</g>
<g id="Group_8">
<path id="Vector_7" d="M29.5998 37.0432C29.3538 37.0432 29.1102 36.9341 28.9471 36.725C27.3997 34.7431 25.3399 31.5975 25.3145 27.1909C25.312 26.7341 25.6802 26.3618 26.1369 26.3594H26.1418C26.5961 26.3594 26.9659 26.7267 26.9692 27.1818C26.9864 30.1921 27.9983 32.8218 30.2517 35.7074C30.5329 36.0674 30.469 36.5872 30.109 36.8685C29.9565 36.9866 29.7777 37.0432 29.5998 37.0432Z" fill="#8D8D8D"/>
</g>
<g id="Group_9">
<path id="Vector_8" d="M18.8458 16.3637H16.3645C15.9078 16.3637 15.5371 15.9931 15.5371 15.5364C15.5371 15.0796 15.9078 14.709 16.3645 14.709H18.8458C19.3026 14.709 19.6732 15.0796 19.6732 15.5364C19.6732 15.9931 19.3026 16.3637 18.8458 16.3637Z" fill="black"/>
</g>
<g id="Group_10">
<path id="Vector_9" d="M26.2911 16.3637H23.8098C23.3531 16.3637 22.9824 15.9931 22.9824 15.5364C22.9824 15.0796 23.3531 14.709 23.8098 14.709H26.2911C26.7479 14.709 27.1185 15.0796 27.1185 15.5364C27.1185 15.9931 26.7479 16.3637 26.2911 16.3637Z" fill="black"/>
</g>
</g>
</g>
</svg>
