<?xml version="1.0" encoding="UTF-8"?>
<svg xmlns="http://www.w3.org/2000/svg" width="31" height="31" viewBox="0 0 31 31" fill="none">
  <g id="download-circular-button 1" clip-path="url(#clip0_830_2251)">
    <g id="Group">
      <g id="_x37__43_">
        <g id="Group_2">
          <path id="Vector" d="M20.461 14.9808L16.4688 18.9739V8.71875C16.4688 8.184 16.0347 7.75 15.5 7.75C14.9653 7.75 14.5312 8.184 14.5312 8.71875V18.9739L10.539 14.9817C10.1603 14.6029 9.54704 14.6029 9.16921 14.9817C8.79043 15.3605 8.79043 15.9737 9.16921 16.3515L14.6494 21.8317C14.8819 22.0642 15.1997 22.1359 15.501 22.0826C15.8013 22.1359 16.1201 22.0632 16.3526 21.8317L21.8328 16.3515C22.2116 15.9727 22.2116 15.3595 21.8328 14.9817C21.453 14.6029 20.8398 14.6029 20.461 14.9808ZM15.5 0C6.94015 0 0 6.93914 0 15.5C0 24.0609 6.94015 31 15.5 31C24.0599 31 31 24.0599 31 15.5C31 6.94015 24.0609 0 15.5 0ZM15.5 29.0625C8.0096 29.0625 1.9375 22.9904 1.9375 15.5C1.9375 8.0096 8.0096 1.9375 15.5 1.9375C22.9904 1.9375 29.0625 8.0096 29.0625 15.5C29.0625 22.9904 22.9904 29.0625 15.5 29.0625Z" fill="black"></path>
        </g>
      </g>
    </g>
  </g>
  <defs>
    <clipPath id="clip0_830_2251">
      <rect width="31" height="31" fill="white"></rect>
    </clipPath>
  </defs>
</svg>
