<svg width="28" height="28" viewBox="0 0 28 28" fill="none" xmlns="http://www.w3.org/2000/svg">
<g id="linkedin 1" clip-path="url(#clip0_1_6338)">
<g id="Layer 2">
<g id="linkedin">
<path id="background" d="M24.1818 0H3.81818C1.70946 0 0 1.70946 0 3.81818V24.1818C0 26.2905 1.70946 28 3.81818 28H24.1818C26.2905 28 28 26.2905 28 24.1818V3.81818C28 1.70946 26.2905 0 24.1818 0Z" fill="#0077B5"/>
<g id="icon">
<path id="Vector" d="M10.0872 7.63636C10.0872 8.10834 9.94722 8.56972 9.68501 8.96216C9.42279 9.35459 9.05009 9.66046 8.61404 9.84108C8.17799 10.0217 7.69817 10.069 7.23526 9.97687C6.77235 9.8848 6.34714 9.65752 6.0134 9.32378C5.67967 8.99004 5.45239 8.56483 5.36031 8.10192C5.26823 7.63901 5.31549 7.15919 5.49611 6.72314C5.67672 6.28709 5.98259 5.91439 6.37503 5.65217C6.76746 5.38996 7.22884 5.25 7.70082 5.25C8.33372 5.25 8.9407 5.50142 9.38823 5.94895C9.83576 6.39648 10.0872 7.00346 10.0872 7.63636Z" fill="white"/>
<path id="Vector_2" d="M9.54688 11.6133V22.1563C9.5473 22.234 9.53235 22.3111 9.50287 22.3831C9.4734 22.4551 9.42999 22.5205 9.37514 22.5757C9.32029 22.6308 9.25508 22.6746 9.18326 22.7044C9.11145 22.7343 9.03444 22.7497 8.95666 22.7497H6.44143C6.36365 22.7499 6.2866 22.7347 6.2147 22.705C6.14281 22.6754 6.07748 22.6318 6.02248 22.5768C5.96749 22.5218 5.9239 22.4565 5.89423 22.3846C5.86457 22.3127 5.8494 22.2356 5.84961 22.1578V11.6133C5.84961 11.4563 5.91196 11.3058 6.02295 11.1948C6.13394 11.0838 6.28447 11.0215 6.44143 11.0215H8.95666C9.11334 11.0219 9.26346 11.0844 9.37411 11.1954C9.48475 11.3063 9.54689 11.4566 9.54688 11.6133Z" fill="white"/>
<path id="Vector_3" d="M22.6945 17.1031V22.2067C22.6947 22.2783 22.6808 22.3491 22.6535 22.4152C22.6262 22.4813 22.5862 22.5414 22.5356 22.5919C22.485 22.6425 22.425 22.6826 22.3589 22.7098C22.2927 22.7371 22.2219 22.751 22.1504 22.7508H19.4458C19.3743 22.751 19.3035 22.7371 19.2374 22.7098C19.1713 22.6826 19.1112 22.6425 19.0606 22.5919C19.0101 22.5414 18.97 22.4813 18.9427 22.4152C18.9155 22.3491 18.9015 22.2783 18.9018 22.2067V17.2606C18.9018 16.5224 19.1181 14.0279 16.972 14.0279C15.3095 14.0279 14.9706 15.7349 14.9038 16.5017V22.2067C14.9038 22.3497 14.8476 22.4869 14.7473 22.5887C14.6469 22.6905 14.5106 22.7487 14.3677 22.7508H11.7554C11.684 22.7508 11.6133 22.7368 11.5474 22.7094C11.4815 22.682 11.4216 22.6419 11.3712 22.5914C11.3208 22.5408 11.2809 22.4808 11.2537 22.4148C11.2266 22.3488 11.2127 22.2781 11.2129 22.2067V11.5683C11.2127 11.497 11.2266 11.4262 11.2537 11.3602C11.2809 11.2942 11.3208 11.2342 11.3712 11.1837C11.4216 11.1332 11.4815 11.0931 11.5474 11.0657C11.6133 11.0383 11.684 11.0242 11.7554 11.0242H14.3677C14.512 11.0242 14.6504 11.0816 14.7524 11.1836C14.8544 11.2856 14.9118 11.424 14.9118 11.5683V12.4879C15.529 11.562 16.4438 10.8477 18.3958 10.8477C22.7199 10.8477 22.6945 14.8854 22.6945 17.1031Z" fill="white"/>
</g>
</g>
</g>
</g>
<defs>
<clipPath id="clip0_1_6338">
<rect width="28" height="28" fill="white"/>
</clipPath>
</defs>
</svg>
