<svg width="39" height="39" viewBox="0 0 39 39" fill="none" xmlns="http://www.w3.org/2000/svg">
<g id="umbrella 1" clip-path="url(#clip0_1_29841)">
<g id="g339">
<g id="g341">
<g id="Clip path group">
<mask id="mask0_1_29841" style="mask-type:luminance" maskUnits="userSpaceOnUse" x="0" y="0" width="39" height="39">
<g id="clipPath347">
<path id="path345" d="M0 3.8147e-06H38.334V38.334H0V3.8147e-06Z" fill="white"/>
</g>
</mask>
<g mask="url(#mask0_1_29841)">
<g id="g343">
<g id="g349">
<path id="path351" d="M31.1875 1.12737V3.5332" stroke="black" stroke-width="2.24613" stroke-miterlimit="10" stroke-linecap="round" stroke-linejoin="round"/>
</g>
</g>
</g>
</g>
</g>
<g id="g353">
<path id="path355" d="M31.1875 8.34026V10.7461" stroke="black" stroke-width="2.24613" stroke-miterlimit="10" stroke-linecap="round" stroke-linejoin="round"/>
</g>
<g id="g357">
<path id="path359" d="M13.1426 4.73089V7.13672" stroke="black" stroke-width="2.24613" stroke-miterlimit="10" stroke-linecap="round" stroke-linejoin="round"/>
</g>
<g id="g361">
<path id="path363" d="M25.1719 4.73089V7.13672" stroke="#8D8D8D" stroke-width="2.24613" stroke-miterlimit="10" stroke-linecap="round" stroke-linejoin="round"/>
</g>
<g id="g365">
<g id="Clip path group_2">
<mask id="mask1_1_29841" style="mask-type:luminance" maskUnits="userSpaceOnUse" x="0" y="0" width="39" height="39">
<g id="clipPath371">
<path id="path369" d="M0 3.8147e-06H38.334V38.334H0V3.8147e-06Z" fill="white"/>
</g>
</mask>
<g mask="url(#mask1_1_29841)">
<g id="g367">
<g id="g373">
<path id="path375" d="M19.1543 1.12737V3.5332" stroke="#8D8D8D" stroke-width="2.24613" stroke-miterlimit="10" stroke-linecap="round" stroke-linejoin="round"/>
</g>
</g>
</g>
</g>
</g>
<g id="g377">
<path id="path379" d="M19.1602 10.7461V8.34026" stroke="black" stroke-width="2.24613" stroke-miterlimit="10" stroke-linecap="round" stroke-linejoin="round"/>
</g>
<g id="g381">
<g id="Clip path group_3">
<mask id="mask2_1_29841" style="mask-type:luminance" maskUnits="userSpaceOnUse" x="0" y="0" width="39" height="39">
<g id="clipPath387">
<path id="path385" d="M0 3.8147e-06H38.334V38.334H0V3.8147e-06Z" fill="white"/>
</g>
</mask>
<g mask="url(#mask2_1_29841)">
<g id="g383">
<g id="g389">
<path id="path391" d="M7.12891 1.12737V3.5332" stroke="#8D8D8D" stroke-width="2.24613" stroke-miterlimit="10" stroke-linecap="round" stroke-linejoin="round"/>
</g>
</g>
</g>
</g>
</g>
<g id="g393">
<path id="path395" d="M7.12891 8.34026V10.7461" stroke="#8D8D8D" stroke-width="2.24613" stroke-miterlimit="10" stroke-linecap="round" stroke-linejoin="round"/>
</g>
<g id="g397">
<g id="Clip path group_4">
<g id="g399">
<g id="g405">
<path id="path407" d="M5.93359 23.9785C5.93359 23.9785 5.93367 23.9785 5.93374 23.9784C8.36967 21.5424 12.319 21.5424 14.7549 23.9784C14.7551 23.9785 14.7551 23.9785 14.7551 23.9785C14.7551 23.9785 14.7551 23.9785 14.7553 23.9784C17.1911 21.5424 21.1404 21.5424 23.5764 23.9784C23.5765 23.9785 23.5765 23.9785 23.5765 23.9785C23.5765 23.9785 23.5767 23.9785 23.5767 23.9784C26.0126 21.5424 29.962 21.5424 32.3979 23.9784C32.398 23.9785 32.398 23.9785 32.398 23.9785V23.9782C32.398 20.4689 31.004 17.1033 28.5225 14.6218C26.041 12.1404 22.6755 10.7463 19.1661 10.7463H19.1655C15.6562 10.7463 12.2906 12.1404 9.80914 14.6218C7.32769 17.1033 5.93359 20.4689 5.93359 23.9782V23.9785Z" stroke="black" stroke-width="1.8" stroke-miterlimit="10" stroke-linecap="round" stroke-linejoin="round"/>
</g>
<g id="g409">
<path id="path411" d="M19.157 22.1744V33.6022C19.157 34.5593 18.7768 35.4772 18.1 36.154C17.4232 36.8307 16.5053 37.2109 15.5482 37.2109C13.5552 37.2109 11.9395 35.5952 11.9395 33.6022" stroke="black" stroke-width="1.8" stroke-miterlimit="10" stroke-linecap="round" stroke-linejoin="round"/>
</g>
</g>
</g>
</g>
</g>
</g>
<defs>
<clipPath id="clip0_1_29841">
<rect width="38.334" height="38.334" fill="white"/>
</clipPath>
</defs>
</svg>
