<svg width="40" height="40" viewBox="0 0 40 40" fill="none" xmlns="http://www.w3.org/2000/svg">
<g id="wash 1">
<g id="layer6">
<path id="path850" d="M5.70738 14.0762L4.82617 14.9574L6.43173 16.5676C7.70611 17.8419 9.79411 17.8419 11.0685 16.5676C11.8652 15.7709 13.1369 15.7709 13.9336 16.5676C15.208 17.8419 17.2913 17.8419 18.5657 16.5676C19.3624 15.7709 20.6387 15.7709 21.4354 16.5676C22.7098 17.8419 24.7932 17.8419 26.0676 16.5676C26.8643 15.7709 28.136 15.7709 28.9327 16.5676C30.207 17.8419 32.295 17.8419 33.5694 16.5676L35.175 14.9574L34.2891 14.0762L32.6836 15.6817C31.8869 16.4784 30.6152 16.4784 29.8185 15.6817C28.5441 14.4074 26.4561 14.4074 25.1817 15.6817C24.385 16.4784 23.1133 16.4784 22.3166 15.6817C21.0423 14.4074 18.9589 14.4074 17.6845 15.6817C16.8878 16.4784 15.6161 16.4784 14.8194 15.6817C13.545 14.4074 11.457 14.4074 10.1827 15.6817C9.38597 16.4784 8.11425 16.4784 7.31756 15.6817L5.70738 14.0762Z" fill="#8D8D8D"/>
<path id="path848" d="M0.795057 6.87305C0.407583 6.87189 0.112415 7.21993 0.176824 7.60201C1.23252 13.9774 2.308 20.3504 3.36026 26.7258C4.06797 30.7698 7.60497 33.7479 11.711 33.7479H28.2926C32.3986 33.7479 35.9357 30.7698 36.6434 26.7258C37.7031 20.3515 38.7654 13.9765 39.8268 7.60201C39.8912 7.21993 39.596 6.87189 39.2086 6.87305H35.4023C35.0964 6.87215 34.8348 7.09275 34.784 7.3944L31.7206 25.8676C31.4254 27.554 30.0045 28.7511 28.2926 28.7511H11.711C10.0006 28.7511 8.57983 27.5563 8.28306 25.8722C7.26318 19.7129 6.24099 13.5536 5.21958 7.3944C5.16882 7.09275 4.90723 6.87215 4.60134 6.87305H0.795057ZM1.52863 8.12336H4.07077C5.05882 14.1096 6.06658 20.0936 7.05121 26.0799C7.44811 28.3479 9.40836 29.9969 11.711 29.9969H28.2926C30.5953 29.9969 32.5555 28.3479 32.9524 26.0799C33.9445 20.0947 34.9391 14.1087 35.9329 8.12336H38.475L35.4115 26.5181C34.8061 29.9659 31.793 32.502 28.2926 32.502H11.711C8.21066 32.502 5.19756 29.9659 4.59212 26.5181C3.57224 20.3865 2.55004 14.2549 1.52863 8.12336Z" fill="black"/>
<path id="path850_2" d="M5.70738 11.0762L4.82617 11.9574L6.43173 13.5676C7.70611 14.8419 9.79411 14.8419 11.0685 13.5676C11.8652 12.7709 13.1369 12.7709 13.9336 13.5676C15.208 14.8419 17.2913 14.8419 18.5657 13.5676C19.3624 12.7709 20.6387 12.7709 21.4354 13.5676C22.7098 14.8419 24.7932 14.8419 26.0676 13.5676C26.8643 12.7709 28.136 12.7709 28.9327 13.5676C30.207 14.8419 32.295 14.8419 33.5694 13.5676L35.175 11.9574L34.2891 11.0762L32.6836 12.6817C31.8869 13.4784 30.6152 13.4784 29.8185 12.6817C28.5441 11.4074 26.4561 11.4074 25.1817 12.6817C24.385 13.4784 23.1133 13.4784 22.3166 12.6817C21.0423 11.4074 18.9589 11.4074 17.6845 12.6817C16.8878 13.4784 15.6161 13.4784 14.8194 12.6817C13.545 11.4074 11.457 11.4074 10.1827 12.6817C9.38597 13.4784 8.11425 13.4784 7.31756 12.6817L5.70738 11.0762Z" fill="black"/>
</g>
</g>
</svg>
