<svg width="28" height="28" viewBox="0 0 28 28" fill="none" xmlns="http://www.w3.org/2000/svg">
<g id="youtube 1" clip-path="url(#clip0_1_6346)">
<g id="Layer 2">
<g id="02.youtube">
<path id="background" d="M25.402 0H2.59795C1.16314 0 0 1.16314 0 2.59795V25.402C0 26.8369 1.16314 28 2.59795 28H25.402C26.8369 28 28 26.8369 28 25.402V2.59795C28 1.16314 26.8369 0 25.402 0Z" fill="#EB0000"/>
<path id="icon" d="M22.3396 9.78979C21.9896 8.71275 20.8314 8.06047 19.7655 7.91093C15.9316 7.50365 12.0653 7.50365 8.23139 7.91093C7.16548 8.06047 6.00412 8.70638 5.6573 9.78979C5.11163 12.5702 5.11163 15.4301 5.6573 18.2105C6.0073 19.2859 7.16548 19.9398 8.23139 20.0893C12.0653 20.4966 15.9316 20.4966 19.7655 20.0893C20.8314 19.9398 21.9928 19.2939 22.3396 18.2105C22.8852 15.4301 22.8852 12.5702 22.3396 9.78979ZM11.9048 17.353V10.6457L17.3648 13.9993C15.5241 15.1305 13.7375 16.2266 11.9048 17.353Z" fill="white"/>
</g>
</g>
</g>
<defs>
<clipPath id="clip0_1_6346">
<rect width="28" height="28" fill="white"/>
</clipPath>
</defs>
</svg>
